<svg xmlns="http://www.w3.org/2000/svg" viewBox="0 0 64 64" fill="none">
  <rect width="64" height="64" rx="14" fill="#1B5E20"/>
  <g transform="translate(12, 8)">
    <!-- Book shape -->
    <path d="M20 4C20 4 14 2 4 4V40C14 38 20 40 20 40C20 40 26 38 36 40V4C26 2 20 4 20 4Z" fill="#2E7D32" stroke="#A5D6A7" stroke-width="1.5"/>
    <line x1="20" y1="4" x2="20" y2="40" stroke="#A5D6A7" stroke-width="1"/>
    <!-- Star decoration -->
    <circle cx="20" cy="22" r="6" fill="none" stroke="#FFD54F" stroke-width="1"/>
    <circle cx="20" cy="22" r="3" fill="#FFD54F" opacity="0.6"/>
    <!-- Arabic-style lines -->
    <line x1="8" y1="12" x2="16" y2="12" stroke="#A5D6A7" stroke-width="1" stroke-linecap="round"/>
    <line x1="8" y1="16" x2="16" y2="16" stroke="#A5D6A7" stroke-width="1" stroke-linecap="round"/>
    <line x1="8" y1="30" x2="16" y2="30" stroke="#A5D6A7" stroke-width="1" stroke-linecap="round"/>
    <line x1="8" y1="34" x2="16" y2="34" stroke="#A5D6A7" stroke-width="1" stroke-linecap="round"/>
    <line x1="24" y1="12" x2="32" y2="12" stroke="#A5D6A7" stroke-width="1" stroke-linecap="round"/>
    <line x1="24" y1="16" x2="32" y2="16" stroke="#A5D6A7" stroke-width="1" stroke-linecap="round"/>
    <line x1="24" y1="30" x2="32" y2="30" stroke="#A5D6A7" stroke-width="1" stroke-linecap="round"/>
    <line x1="24" y1="34" x2="32" y2="34" stroke="#A5D6A7" stroke-width="1" stroke-linecap="round"/>
  </g>
</svg>
