<svg width="64" height="64" viewBox="0 0 64 64" fill="none" xmlns="http://www.w3.org/2000/svg">
  <circle cx="32" cy="32" r="27" fill="#0F172A"/>
  <circle cx="32" cy="32" r="23.5" fill="#F8FAFC" stroke="#CBD5E1"/>
  <path d="M32 8.5C35.5732 8.5 39.1109 9.20377 42.4116 10.5714L32 32V8.5Z" fill="#F97316"/>
  <path d="M42.4116 10.5714C45.7123 11.9391 48.7114 13.9435 51.2377 16.4698L32 32L42.4116 10.5714Z" fill="#FB7185"/>
  <path d="M51.2377 16.4698C53.764 18.9962 55.7685 21.9953 57.1361 25.296L32 32L51.2377 16.4698Z" fill="#A855F7"/>
  <path d="M57.1361 25.296C58.5038 28.5967 59.2075 32.1344 59.2075 35.7075L32 32L57.1361 25.296Z" fill="#3B82F6"/>
  <path d="M59.2075 35.7075C59.2075 39.2807 58.5038 42.8184 57.1361 46.1191L32 32L59.2075 35.7075Z" fill="#06B6D4"/>
  <path d="M57.1361 46.1191C55.7685 49.4198 53.764 52.4189 51.2377 54.9453L32 32L57.1361 46.1191Z" fill="#10B981"/>
  <path d="M51.2377 54.9453C48.7114 57.4716 45.7123 59.476 42.4116 60.8437L32 32L51.2377 54.9453Z" fill="#84CC16"/>
  <path d="M42.4116 60.8437C39.1109 62.2114 35.5732 62.9151 32 62.9151L32 32L42.4116 60.8437Z" fill="#FACC15"/>
  <path d="M32 62.9151C28.4269 62.9151 24.8891 62.2114 21.5884 60.8437L32 32V62.9151Z" fill="#F59E0B"/>
  <path d="M21.5884 60.8437C18.2877 59.476 15.2886 57.4716 12.7623 54.9453L32 32L21.5884 60.8437Z" fill="#EF4444"/>
  <path d="M12.7623 54.9453C10.236 52.4189 8.23155 49.4198 6.86388 46.1191L32 32L12.7623 54.9453Z" fill="#EC4899"/>
  <path d="M6.86388 46.1191C5.49622 42.8184 4.79245 39.2807 4.79245 35.7075L32 32L6.86388 46.1191Z" fill="#8B5CF6"/>
  <path d="M4.79245 35.7075C4.79245 32.1344 5.49622 28.5967 6.86388 25.296L32 32L4.79245 35.7075Z" fill="#6366F1"/>
  <path d="M6.86388 25.296C8.23155 21.9953 10.236 18.9962 12.7623 16.4698L32 32L6.86388 25.296Z" fill="#0EA5E9"/>
  <path d="M12.7623 16.4698C15.2886 13.9435 18.2877 11.9391 21.5884 10.5714L32 32L12.7623 16.4698Z" fill="#14B8A6"/>
  <path d="M21.5884 10.5714C24.8891 9.20377 28.4268 8.5 32 8.5V32L21.5884 10.5714Z" fill="#22C55E"/>
  <circle cx="32" cy="32" r="7" fill="#0F172A"/>
  <circle cx="32" cy="32" r="3" fill="#F8FAFC"/>
  <path d="M32 2L40 14H24L32 2Z" fill="#0F172A"/>
</svg>
