<svg xmlns="http://www.w3.org/2000/svg" width="512" height="512" viewBox="0 0 512 512"><g><circle cx="256" cy="256" r="240" fill="#1a1a2e" opacity="1"/><circle cx="256" cy="256" r="200" fill="#16213e" opacity="1"/><g fill="#e94560"><circle cx="256" cy="256" r="24"/><path d="M256 200c-30.928 0-56 25.072-56 56s25.072 56 56 56 56-25.072 56-56-25.072-56-56-56zm0 96c-22.056 0-40-17.944-40-40s17.944-40 40-40 40 17.944 40 40-17.944 40-40 40z"/><path d="M256 160c-52.935 0-96 43.065-96 96s43.065 96 96 96 96-43.065 96-96-43.065-96-96-96zm0 176c-44.112 0-80-35.888-80-80s35.888-80 80-80 80 35.888 80 80-35.888 80-80 80z"/><path d="M256 120c-74.991 0-136 61.009-136 136s61.009 136 136 136 136-61.009 136-136-61.009-136-136-136zm0 256c-66.168 0-120-53.832-120-120s53.832-120 120-120 120 53.832 120 120-53.832 120-120 120z"/></g><g fill="#0f3460"><rect x="232" y="80" width="8" height="48" rx="4"/><rect x="272" y="80" width="8" height="48" rx="4"/><rect x="252" y="72" width="8" height="56" rx="4"/><rect x="212" y="88" width="8" height="40" rx="4"/><rect x="292" y="88" width="8" height="40" rx="4"/></g><g fill="#e94560" opacity=".6"><rect x="152" y="384" width="6" height="40" rx="3"/><rect x="176" y="376" width="6" height="48" rx="3"/><rect x="200" y="384" width="6" height="40" rx="3"/><rect x="306" y="384" width="6" height="40" rx="3"/><rect x="330" y="376" width="6" height="48" rx="3"/><rect x="354" y="384" width="6" height="40" rx="3"/></g></g></svg>
