<svg xmlns="http://www.w3.org/2000/svg" version="1.1" xmlns:xlink="http://www.w3.org/1999/xlink" width="512" height="512" x="0" y="0" viewBox="0 0 512 512" style="enable-background:new 0 0 512 512" xml:space="preserve" class=""><g><path fill="#405872" d="M117.129 507.969a23.208 23.208 0 0 1-22.399-17.125l-5.027-18.52h54.852l-5.032 18.52a23.2 23.2 0 0 1-22.394 17.125zM394.863 507.969a23.211 23.211 0 0 1-22.398-17.125l-5.028-18.52h54.852l-5.027 18.52a23.208 23.208 0 0 1-22.399 17.125zm0 0" opacity="1" data-original="#405872" class=""></path><path fill="#b7d0e5" d="M224.848 74.059a7.811 7.811 0 0 1-5.543-2.297l-58.383-58.383a7.832 7.832 0 0 1 0-11.082 7.832 7.832 0 0 1 11.082 0L230.39 60.68a7.84 7.84 0 0 1-5.543 13.379zM291.957 74.059a7.811 7.811 0 0 1-5.543-2.297 7.832 7.832 0 0 1 0-11.082l58.383-58.383a7.832 7.832 0 0 1 11.082 0 7.832 7.832 0 0 1 0 11.082l-58.383 58.383a7.802 7.802 0 0 1-5.539 2.297zm0 0" opacity="1" data-original="#b7d0e5"></path><path fill="#27425b" d="M305.852 94.559h-94.907c-.011-12.153 4.63-24.305 13.907-33.563 13.03-13.043 31.765-16.906 48.18-11.601a47.291 47.291 0 0 1 18.921 11.601c9.27 9.258 13.91 21.41 13.899 33.563zm0 0" opacity="1" data-original="#27425b"></path><path fill="#405872" d="M305.852 94.559h-65.653c-.008-12.153 4.63-24.305 13.91-33.563a47.291 47.291 0 0 1 18.922-11.601 47.291 47.291 0 0 1 18.922 11.601c9.27 9.258 13.91 21.41 13.899 33.563zm0 0" opacity="1" data-original="#405872" class=""></path><path fill="#e2b74d" d="M512 154.125v258.621c0 33.48-27.145 60.625-60.625 60.625H60.613C27.137 473.371 0 446.227 0 412.746V154.125c0-33.477 27.137-60.613 60.613-60.613h390.762c33.48 0 60.625 27.136 60.625 60.613zm0 0" opacity="1" data-original="#e2b74d"></path><path fill="#f6d269" d="M512 154.125v258.621c0 33.48-27.145 60.625-60.625 60.625H82.265c-33.48 0-60.624-27.144-60.624-60.625V154.125c0-33.477 27.144-60.613 60.625-60.613h369.109c33.48 0 60.625 27.136 60.625 60.613zm0 0" opacity="1" data-original="#f6d269"></path><path fill="#62798e" d="M378.66 360.941c-4.41 35.664-32.926 63.594-68.672 67.305-6.707.7-13.414 1.324-20.113 1.879-59.414 4.91-118.816 4.285-178.227-1.879-35.738-3.71-64.25-31.64-68.66-67.305-6.394-51.668-6.394-103.34 0-155.007 4.41-35.664 32.922-63.594 68.66-67.305 59.41-6.164 118.825-6.79 178.239-1.867 6.695.55 13.406 1.168 20.101 1.867 35.746 3.71 64.262 31.64 68.672 67.305 6.395 51.668 6.395 103.34 0 155.007zm0 0" opacity="1" data-original="#62798e"></path><path fill="#405872" d="M330.648 367.965c-3.293 26.558-18.828 49.191-40.773 62.16-59.414 4.91-118.816 4.285-178.227-1.883-35.738-3.707-64.25-31.637-68.66-67.3-6.394-51.669-6.394-103.34 0-155.012 4.41-35.66 32.922-63.59 68.66-67.301 59.41-6.164 118.825-6.793 178.239-1.871 21.933 12.969 37.468 35.59 40.761 62.152 6.97 56.352 6.97 112.703 0 169.055zm0 0" opacity="1" data-original="#405872" class=""></path><path fill="#d4e8f4" d="M460.57 398.785c-7.687 7.703-19.191 9.25-28.418 4.652-2.332-1.16-4.504-2.718-6.437-4.652s-3.48-4.105-4.64-6.437c-4.598-9.223-3.052-20.73 4.64-28.418 7.691-7.692 19.195-9.239 28.422-4.64a24.537 24.537 0 0 1 6.433 4.64 24.648 24.648 0 0 1 4.653 6.433c4.597 9.227 3.05 20.73-4.653 28.422zM465.223 317.691a24.31 24.31 0 0 1-4.653 6.446 24.537 24.537 0 0 1-6.433 4.64c-9.227 4.598-20.73 3.051-28.422-4.64-7.692-7.688-9.238-19.192-4.64-28.418 1.16-2.332 2.706-4.504 4.64-6.438s4.105-3.492 6.437-4.648c9.227-4.598 20.73-3.055 28.418 4.648 7.692 7.68 9.25 19.184 4.653 28.41zm0 0" opacity="1" data-original="#d4e8f4"></path><g fill="#405872"><path d="M475.898 185.164h-65.507a7.839 7.839 0 1 1 0-15.676h65.507a7.84 7.84 0 0 1 7.84 7.84c0 4.324-3.511 7.836-7.84 7.836zM475.898 213.113h-65.507a7.836 7.836 0 1 1 0-15.672h65.507a7.836 7.836 0 1 1 0 15.672zM475.898 241.063h-65.507a7.836 7.836 0 1 1 0-15.672h65.507a7.836 7.836 0 1 1 0 15.672zm0 0" fill="#405872" opacity="1" data-original="#405872" class=""></path></g><path fill="#b7d0e5" d="m465.223 370.363-33.07 33.074c-2.333-1.16-4.505-2.718-6.438-4.652s-3.48-4.105-4.64-6.437l33.062-33.059a24.537 24.537 0 0 1 6.433 4.64 24.648 24.648 0 0 1 4.653 6.434zM465.223 317.691a24.31 24.31 0 0 1-4.653 6.446 24.537 24.537 0 0 1-6.433 4.64l-33.063-33.058c1.16-2.332 2.707-4.504 4.64-6.438s4.106-3.492 6.438-4.648zm0 0" opacity="1" data-original="#b7d0e5"></path><path fill="#e2b74d" d="M210.824 441.207c-33.41 0-66.808-1.723-99.98-5.168-19.043-1.977-37.07-10.453-50.758-23.867-13.691-13.414-22.527-31.266-24.879-50.266a639.266 639.266 0 0 1 0-156.933c2.352-18.996 11.188-36.852 24.879-50.266 13.687-13.414 31.715-21.89 50.758-23.871a970.251 970.251 0 0 1 199.96 0c19.044 1.98 37.067 10.453 50.755 23.871 13.691 13.418 22.527 31.27 24.878 50.266a639.266 639.266 0 0 1 0 156.933c-2.351 19-11.187 36.852-24.878 50.266-13.688 13.414-31.715 21.89-50.754 23.867a968.3 968.3 0 0 1-99.98 5.168zM50.762 359.98c3.992 32.247 29.367 57.114 61.699 60.47a954.275 954.275 0 0 0 196.726 0c32.333-3.356 57.708-28.223 61.696-60.47a623.386 623.386 0 0 0 0-153.082c-3.988-32.25-29.363-57.113-61.695-60.472a954.275 954.275 0 0 0-196.727 0c-32.332 3.36-57.707 28.222-61.7 60.472a623.771 623.771 0 0 0 0 153.082zm0 0" opacity="1" data-original="#e2b74d"></path></g></svg>