<svg xmlns="http://www.w3.org/2000/svg" version="1.1" xmlns:xlink="http://www.w3.org/1999/xlink" width="512" height="512" x="0" y="0" viewBox="0 0 64 64" style="enable-background:new 0 0 512 512" xml:space="preserve" class=""><g><path d="m7.29 23.67 20.76 10.4c1.24.62 2.59.93 3.95.93s2.71-.31 3.95-.93l20.76-10.4C58.12 22.96 59 21.55 59 20s-.88-2.97-2.29-3.67L35.95 5.93a8.853 8.853 0 0 0-7.9 0L7.3 16.32c-1.41.71-2.29 2.12-2.29 3.67s.88 2.97 2.29 3.67z" fill="#000000" opacity="1" data-original="#000000" class=""></path><path d="M54.98 29.16c-.78.79-.76 2.08.02 2.86 0 .01 0 .04-.09.08L34.15 42.49c-1.35.68-2.96.68-4.31 0L9.08 32.1c-.08-.04-.08-.07-.07-.14.79-.78.79-2.04.02-2.83-.78-.79-2.04-.79-2.83-.02-.93.92-1.36 2.24-1.16 3.53.21 1.32 1.03 2.42 2.25 3.03l20.76 10.39c1.24.62 2.59.93 3.95.93s2.71-.31 3.94-.93L56.7 35.67c1.22-.61 2.04-1.71 2.25-3.03.21-1.29-.23-2.61-1.16-3.53-.79-.78-2.04-.74-2.82.04z" fill="#000000" opacity="1" data-original="#000000" class=""></path><path d="M54.98 41.16c-.78.79-.76 2.08.02 2.86 0 .01 0 .04-.09.08L34.15 54.49c-1.35.68-2.96.68-4.31 0L9.08 44.1c-.08-.04-.08-.07-.07-.14.79-.78.79-2.04.02-2.83-.78-.79-2.04-.79-2.83-.02-.93.92-1.36 2.24-1.16 3.53.21 1.32 1.03 2.42 2.25 3.03l20.76 10.39c1.24.62 2.59.93 3.95.93s2.71-.31 3.94-.93L56.7 47.67c1.22-.61 2.04-1.71 2.25-3.03.21-1.29-.23-2.61-1.16-3.53-.79-.78-2.04-.74-2.82.04z" fill="#000000" opacity="1" data-original="#000000" class=""></path></g></svg>