<svg xmlns="http://www.w3.org/2000/svg" version="1.1" xmlns:xlink="http://www.w3.org/1999/xlink" width="512" height="512" x="0" y="0" viewBox="0 0 497 497" style="enable-background:new 0 0 512 512" xml:space="preserve" class=""><g><path fill="#f0224e" d="M248.5 0v497c4.966 0 9.355-2.424 12.085-6.141.021 0 140.047-191.036 140.047-191.036C423.485 268.627 437 230.144 437 188.5 437 84.394 352.606 0 248.5 0z" opacity="1" data-original="#f0224e" class=""></path><path fill="#ff4c50" d="M258.662 490.859c.017 0 117.759-191.036 117.759-191.036C395.636 268.627 407 230.144 407 188.5 407 84.394 336.037 0 248.5 0 144.394 0 60 84.394 60 188.5c0 41.644 13.515 80.127 36.383 111.322-.016 0 140.011 191.036 140.011 191.036 2.751 3.718 7.14 6.141 12.106 6.141 4.176.001 7.866-2.423 10.162-6.14z" opacity="1" data-original="#ff4c50" class=""></path><circle cx="248.5" cy="188.5" r="128.5" fill="#ffffff" opacity="1" data-original="#ffffff" class=""></circle><path fill="#1b74d6" d="M248.5 90v90c24.853 0 45-20.147 45-45s-20.147-45-45-45z" opacity="1" data-original="#1b74d6"></path><path fill="#1e8aff" d="M263.5 135c0-24.853-6.716-45-15-45-24.853 0-45 20.147-45 45s20.147 45 45 45c8.284 0 15-20.147 15-45z" opacity="1" data-original="#1e8aff"></path><path fill="#54a5ff" d="M195.996 210c-16.5 0-30 13.5-30 30v2.316a99.033 99.033 0 0 0 30 29.529l30-61.845z" opacity="1" data-original="#54a5ff"></path><path fill="#1b74d6" d="M301.004 210h-30l30 61.845a99.033 99.033 0 0 0 30-29.529V240c0-16.5-13.5-30-30-30z" opacity="1" data-original="#1b74d6"></path><path fill="#1e8aff" d="M271.004 210h-45.009c-16.5 0-30 13.5-30 30v31.845C211.194 281.442 229.196 287 248.5 287s37.306-5.558 52.504-15.155V240c0-16.5-13.5-30-30-30z" opacity="1" data-original="#1e8aff"></path></g></svg>