<svg xmlns="http://www.w3.org/2000/svg" version="1.1" xmlns:xlink="http://www.w3.org/1999/xlink" width="512" height="512" x="0" y="0" viewBox="0 0 468 468" style="enable-background:new 0 0 512 512" xml:space="preserve" class=""><g><path fill="#63777f" d="M236.635 123.544a6 6 0 0 1-6-6V28.211a6 6 0 0 1 12 0v89.333a6 6 0 0 1-6 6z" opacity="1" data-original="#63777f"></path><ellipse cx="236.635" cy="19.143" fill="#2dcbe0" rx="19.127" ry="19.143" opacity="1" data-original="#2dcbe0" class=""></ellipse><path fill="#63777f" d="M287.893 92.747a6 6 0 0 1-6-6V38.778c0-14.135 11.5-25.634 25.635-25.634h47.985a6 6 0 0 1 0 12h-47.985c-7.519 0-13.635 6.116-13.635 13.634v47.969a6 6 0 0 1-6 6z" opacity="1" data-original="#63777f"></path><ellipse cx="364.564" cy="19.143" fill="#485f66" rx="19.127" ry="19.143" opacity="1" data-original="#485f66" class=""></ellipse><path fill="#63777f" d="M180.628 92.747a6 6 0 0 1-6-6V38.778c0-7.518-6.116-13.634-13.635-13.634h-47.985a6 6 0 0 1 0-12h47.985c14.135 0 25.635 11.5 25.635 25.634v47.969a6 6 0 0 1-6 6z" opacity="1" data-original="#63777f"></path><ellipse cx="103.956" cy="19.143" fill="#485f66" rx="19.127" ry="19.143" opacity="1" data-original="#485f66" class=""></ellipse><path fill="#63777f" d="M124.457 235.721H45.2a6 6 0 0 1 0-12h79.257a6 6 0 0 1 0 12z" opacity="1" data-original="#63777f"></path><ellipse cx="26.057" cy="229.721" fill="#2dcbe0" rx="19.143" ry="19.127" opacity="1" data-original="#2dcbe0" class=""></ellipse><path fill="#63777f" d="M98.209 175.311H40.422c-14.135 0-25.634-11.5-25.634-25.634v-47.986a6 6 0 0 1 12 0v47.986c0 7.518 6.116 13.634 13.634 13.634h57.787a6 6 0 0 1 0 12z" opacity="1" data-original="#63777f"></path><ellipse cx="20.788" cy="92.639" fill="#485f66" rx="19.143" ry="19.127" opacity="1" data-original="#485f66" class=""></ellipse><path fill="#63777f" d="M20.788 363.751a6 6 0 0 1-6-6v-47.986c0-14.135 11.499-25.634 25.634-25.634h57.787a6 6 0 0 1 0 12H40.422c-7.518 0-13.634 6.116-13.634 13.634v47.986a6 6 0 0 1-6 6z" opacity="1" data-original="#63777f"></path><ellipse cx="20.788" cy="366.803" fill="#485f66" rx="19.143" ry="19.127" opacity="1" data-original="#485f66" class=""></ellipse><path fill="#63777f" d="M236.635 437.23a6 6 0 0 1-6-6v-89.333a6 6 0 0 1 12 0v89.333a6 6 0 0 1-6 6z" opacity="1" data-original="#63777f"></path><ellipse cx="236.635" cy="440.298" fill="#2dcbe0" rx="19.127" ry="19.143" opacity="1" data-original="#2dcbe0" class=""></ellipse><path fill="#63777f" d="M156.591 454.856h-47.986a6 6 0 0 1 0-12h47.986c7.518 0 13.634-6.116 13.634-13.634v-47.969a6 6 0 0 1 12 0v47.969c0 14.135-11.499 25.634-25.634 25.634z" opacity="1" data-original="#63777f"></path><ellipse cx="99.553" cy="448.857" fill="#485f66" rx="19.127" ry="19.143" opacity="1" data-original="#485f66" class=""></ellipse><path fill="#63777f" d="M365.158 450.989h-47.986c-14.135 0-25.634-11.5-25.634-25.634v-47.969a6 6 0 0 1 12 0v47.969c0 7.518 6.116 13.634 13.634 13.634h47.986a6 6 0 0 1 0 12z" opacity="1" data-original="#63777f"></path><ellipse cx="374.21" cy="444.989" fill="#485f66" rx="19.127" ry="19.143" opacity="1" data-original="#485f66" class=""></ellipse><path fill="#63777f" d="M438.145 235.721h-89.333a6 6 0 0 1 0-12h89.333a6 6 0 0 1 0 12z" opacity="1" data-original="#63777f"></path><ellipse cx="447.212" cy="229.721" fill="#2dcbe0" rx="19.143" ry="19.127" opacity="1" data-original="#2dcbe0" class=""></ellipse><path fill="#63777f" d="M447.212 367.619a6 6 0 0 1-6-6v-47.986c0-7.518-6.116-13.634-13.634-13.634h-47.97a6 6 0 0 1 0-12h47.97c14.135 0 25.634 11.5 25.634 25.634v47.986a6 6 0 0 1-6 6z" opacity="1" data-original="#63777f"></path><ellipse cx="447.212" cy="370.67" fill="#485f66" rx="19.143" ry="19.127" opacity="1" data-original="#485f66" class=""></ellipse><path fill="#63777f" d="M427.578 179.417h-47.97a6 6 0 0 1 0-12h47.97c7.518 0 13.634-6.116 13.634-13.634v-47.986a6 6 0 0 1 12 0v47.986c0 14.134-11.499 25.634-25.634 25.634z" opacity="1" data-original="#63777f"></path><ellipse cx="447.212" cy="96.745" fill="#485f66" rx="19.143" ry="19.127" opacity="1" data-original="#485f66" class=""></ellipse><path fill="#2dcbe0" d="M384 256.577v-53.712l-35.139-5.112a118.446 118.446 0 0 0-11.042-26.641l21.237-28.468-37.98-37.98-28.467 21.237a118.446 118.446 0 0 0-26.641-11.042l-5.112-35.139h-53.712l-5.112 35.139a118.446 118.446 0 0 0-26.641 11.042l-28.467-21.237-37.98 37.98 21.237 28.468a118.446 118.446 0 0 0-11.042 26.641L84 202.865v53.712l35.139 5.112a118.446 118.446 0 0 0 11.042 26.641l-21.237 28.468 37.98 37.98 28.467-21.237a118.446 118.446 0 0 0 26.641 11.042l5.112 35.139h53.712l5.112-35.139a118.446 118.446 0 0 0 26.641-11.042l28.467 21.237 37.98-37.98-21.237-28.468a118.446 118.446 0 0 0 11.042-26.641z" opacity="1" data-original="#2dcbe0" class=""></path><circle cx="236.635" cy="229.721" r="83.5" fill="#ffffff" opacity="1" data-original="#ffffff" class=""></circle><path fill="#63777f" d="m226.288 249.643-21.673-45.046a6.001 6.001 0 0 0-5.407-3.399h-.046a6.001 6.001 0 0 0-5.4 3.482l-20.823 45.046a6 6 0 0 0 2.929 7.964c2.938 1.379 6.57.11 7.964-2.929l3.59-7.767h24.275l3.777 7.851c1.438 2.987 5.024 4.241 8.009 2.805s4.242-5.021 2.805-8.007zm-33.319-14.648 6.348-13.732 6.607 13.732zM241.151 260.083a6 6 0 0 1-6-6V205.359a6 6 0 0 1 6-6h13.045c10.707 0 19.417 8.71 19.417 19.417.227 10.654-9.333 19.937-19.979 19.409l-6.482-.188v16.086a6.002 6.002 0 0 1-6.001 6zm6-34.091 6.83.198c2.037.069 3.933-.685 5.383-2.094s2.249-3.298 2.249-5.32c0-4.09-3.327-7.417-7.417-7.417h-7.045zM289.095 260.083a6 6 0 0 1-6-6v-48.724a6 6 0 0 1 12 0v48.724a6 6 0 0 1-6 6z" opacity="1" data-original="#63777f"></path></g></svg>