<svg xmlns="http://www.w3.org/2000/svg" version="1.1" xmlns:xlink="http://www.w3.org/1999/xlink" width="512" height="512" x="0" y="0" viewBox="0 0 60 60" style="enable-background:new 0 0 512 512" xml:space="preserve" class=""><g><circle cx="15" cy="15" r="14" fill="#fdcd08" opacity="1" data-original="#fdcd08"></circle><circle cx="45" cy="45" r="14" fill="#e4eaea" opacity="1" data-original="#e4eaea"></circle><path fill="#6bc444" d="M41.999 12.001c8.025 0 13.754 6.435 12.921 13.614-.05.46-.702.53-.883.09C52.051 20.955 48.018 18 41.999 18v3.23c0 .65-.76 1.01-1.26.59l-7.461-6.23a.766.766 0 0 1 0-1.18l7.461-6.23a.768.768 0 0 1 1.26.59V12zM18.001 47.999c-8.025 0-13.754-6.435-12.921-13.614.05-.46.702-.53.883-.09C7.949 39.045 11.982 42 18.001 42v-3.23c0-.65.76-1.01 1.26-.59l7.461 6.23c.37.31.37.87 0 1.18l-7.461 6.23c-.5.42-1.26.06-1.26-.59V48z" opacity="1" data-original="#6bc444"></path><path fill="#fcb029" d="M21 18.5c0-3.104-2.593-3.88-5-4.336V9.087c1.505.242 2.642 1.025 3.06 2.177.188.52.763.785 1.281.6.519-.188.787-.762.6-1.281-.705-1.945-2.554-3.239-4.94-3.521V6.001a1 1 0 1 0-2 0v1.065c-2.871.348-5 2.168-5 4.435 0 3.104 2.593 3.88 5 4.336v5.077c-1.505-.242-2.642-1.025-3.06-2.177a1.005 1.005 0 0 0-1.281-.6 1.002 1.002 0 0 0-.6 1.281c.705 1.945 2.554 3.239 4.94 3.521V24a1 1 0 1 0 2 0v-1.065c2.871-.348 5-2.168 5-4.435zm-10-7c0-1.139 1.3-2.12 3-2.407v4.699c-2.066-.428-3-.915-3-2.291zm5 9.407v-4.699c2.066.428 3 .915 3 2.291 0 1.139-1.3 2.12-3 2.407z" opacity="1" data-original="#fcb029"></path><path fill="#bdc6c6" d="M51.419 48.092a1 1 0 0 0-1.327.489C49.119 50.689 47.333 52 45.432 52c-2.161 0-4.026-1.639-4.9-4H44a1 1 0 1 0 0-2h-3.938c-.037-.328-.062-.66-.062-1s.025-.672.062-1H44a1 1 0 1 0 0-2h-3.468c.874-2.361 2.739-4 4.9-4 1.901 0 3.688 1.311 4.66 3.419a1 1 0 1 0 1.816-.838C50.604 37.755 48.123 36 45.431 36c-3.228 0-5.975 2.51-6.998 6h-1.434a1 1 0 1 0 0 2h1.049c-.03.329-.049.662-.049 1s.019.671.049 1h-1.049a1 1 0 1 0 0 2h1.434c1.023 3.49 3.77 6 6.998 6 2.691 0 5.173-1.755 6.477-4.581a1 1 0 0 0-.489-1.327z" opacity="1" data-original="#bdc6c6"></path><path fill="#fcb029" d="M15 30C6.729 30 0 23.271 0 15S6.729 0 15 0s15 6.729 15 15-6.729 15-15 15zm0-28C7.832 2 2 7.832 2 15s5.832 13 13 13 13-5.832 13-13S22.168 2 15 2z" opacity="1" data-original="#fcb029"></path><path fill="#bdc6c6" d="M45 60c-8.271 0-15-6.729-15-15s6.729-15 15-15 15 6.729 15 15-6.729 15-15 15zm0-28c-7.168 0-13 5.832-13 13s5.832 13 13 13 13-5.832 13-13-5.832-13-13-13z" opacity="1" data-original="#bdc6c6"></path></g></svg>