<svg xmlns="http://www.w3.org/2000/svg" version="1.1" xmlns:xlink="http://www.w3.org/1999/xlink" width="512" height="512" x="0" y="0" viewBox="0 0 512 512" style="enable-background:new 0 0 512 512" xml:space="preserve" class=""><g><path fill="#cbc4cc" d="m455.476 331.511 45.326-64.652-161.934-113.644-127.652 182.08c-7.143 10.189-4.89 24.094 5.032 31.057l107.957 118.184 28.934 20.306c17.831 12.514 42.426 8.196 54.933-9.645l4.88-6.961 87.665-125.044z" opacity="1" data-original="#cbc4cc" class=""></path><path fill="#f3f0f3" d="m367.475 484.177-.581-.407c-6.822-4.788-8.473-14.198-3.689-21.022l122.842-175.22 25.293 17.751-122.833 175.208c-4.787 6.828-14.206 8.481-21.032 3.69z" opacity="1" data-original="#f3f0f3" class=""></path><path fill="#f3f0f3" d="M352.753 504.571 13.59 266.548c-13.73-9.636-17.053-28.583-7.422-42.32l10.426-14.871L163.369 0l331.582 232.702-151.884 216.644c-12.567 17.926-8.231 42.651 9.686 55.225z" opacity="1" data-original="#f3f0f3" class=""></path><path fill="#e2dee2" d="m494.951 232.702-30.987-21.746-167.255 238.39a39.603 39.603 0 0 0-5.672 11.913l61.716 43.311c-17.917-12.574-22.253-37.299-9.686-55.225z" opacity="1" data-original="#e2dee2" class=""></path><path fill="#fd6930" d="m172.42 53.447 270.346 189.474-74.519 106.326L97.901 159.773z" opacity="1" data-original="#fd6930" class=""></path><g fill="#fff"><path d="M219.34 123.088a7.725 7.725 0 0 0-10.743 1.995l-18.357 26.731.378-44.648a7.727 7.727 0 0 0-14.053-4.501l-32.499 46.359a7.727 7.727 0 0 0 12.654 8.871l18.235-26.013-.36 42.448c-.031 3.949 2.249 7.236 5.811 8.375a8.263 8.263 0 0 0 2.527.397c2.808 0 5.525-1.452 7.372-4.089l31.03-45.184a7.724 7.724 0 0 0-1.995-10.741zM259.041 170.107a7.727 7.727 0 0 0 8.872-12.653l-19.332-13.552a7.728 7.728 0 0 0-10.763 1.891L221.689 168.8l-.003.004-.003.005-16.128 23.006a7.727 7.727 0 0 0 1.891 10.762l19.332 13.553a7.684 7.684 0 0 0 4.429 1.4 7.727 7.727 0 0 0 4.443-14.054l-13.006-9.118L229.905 184l11.581 8.118a7.688 7.688 0 0 0 4.428 1.4 7.726 7.726 0 0 0 4.442-14.054l-11.58-8.117 7.261-10.358zM397.318 257.199c-.182-.689-4.65-16.941-20.324-22.1-7.984-2.626-16.303-.685-21.71 5.069-5.089 5.416-6.549 13.038-3.811 19.891.152.379.333.745.542 1.096.185.308 4.576 7.644 9.907 15.353 1.102 1.594 4.481 7.007 1.699 9.771-2.094 2.082-6.766 2.484-10.953-.453-4.449-3.119-7.468-7.912-8.076-12.821a7.721 7.721 0 0 0-8.619-6.717 7.727 7.727 0 0 0-6.717 8.618c1.155 9.311 6.455 17.903 14.541 23.572 4.708 3.3 10.058 4.934 15.215 4.934 5.81 0 11.375-2.073 15.5-6.172 5.884-5.846 9.005-16.671.12-29.522-4.143-5.99-7.779-11.897-8.955-13.833-.404-1.554.452-2.695.867-3.137.609-.648 2.375-2.04 5.618-.973 7.546 2.484 10.155 11.167 10.232 11.433a7.728 7.728 0 0 0 9.432 5.436 7.723 7.723 0 0 0 5.492-9.445zM347.386 213.159a7.726 7.726 0 0 0-10.924-.239l-22.437 21.474 10.107-31.179a7.722 7.722 0 0 0-12.564-8.077l-25.414 19.727 12.611-28.487a7.727 7.727 0 0 0-14.131-6.254l-23.05 52.073a7.528 7.528 0 0 0-.378 1.058 9.008 9.008 0 0 0 3.553 9.818 8.992 8.992 0 0 0 5.117 1.595 8.997 8.997 0 0 0 5.324-1.74c.058-.042.115-.086.171-.129l26.306-20.419-10.266 31.671a9.007 9.007 0 0 0 3.461 10.132 8.987 8.987 0 0 0 5.115 1.594 8.996 8.996 0 0 0 5.327-1.743c.271-.199.529-.415.772-.648l41.06-39.3a7.728 7.728 0 0 0 .24-10.927z" fill="#ffffff" opacity="1" data-original="#ffffff" class=""></path></g><path fill="#7a6d79" d="m191.18 391.11 56.22-80.218 98.699 69.174-56.22 80.217z" opacity="1" data-original="#7a6d79"></path><g fill="#cbc4cc"><path d="M218.38 280.606 81.314 184.414a7.727 7.727 0 0 0-8.878 12.649l137.066 96.192a7.686 7.686 0 0 0 4.432 1.402 7.715 7.715 0 0 0 6.331-3.289 7.725 7.725 0 0 0-1.885-10.762zM199.552 307.462 62.486 211.27a7.727 7.727 0 0 0-8.878 12.649l137.066 96.192a7.686 7.686 0 0 0 4.432 1.402 7.715 7.715 0 0 0 6.331-3.289 7.725 7.725 0 0 0-1.885-10.762zM180.724 334.318 43.658 238.126a7.727 7.727 0 0 0-8.878 12.649l137.066 96.192a7.686 7.686 0 0 0 4.432 1.402 7.715 7.715 0 0 0 6.331-3.289 7.725 7.725 0 0 0-1.885-10.762z" fill="#cbc4cc" opacity="1" data-original="#cbc4cc" class=""></path></g></g></svg>