<svg xmlns="http://www.w3.org/2000/svg" version="1.1" xmlns:xlink="http://www.w3.org/1999/xlink" width="512" height="512" x="0" y="0" viewBox="0 0 512 512" style="enable-background:new 0 0 512 512" xml:space="preserve" class=""><g><path fill="#fddeb0" d="M417.671 258.505a10.425 10.425 0 0 1-1.315-4.946 161.299 161.299 0 0 0-8.532-49.346h-88.409a4.16 4.16 0 0 1-4.155-4.156v-52.946a4.16 4.16 0 0 1 4.155-4.156h50.667c-25.142-25.613-58.741-42.894-96.28-47.313-3.308 19.83-13.853 37.717-30.052 50.394-6.04 4.727-10.395 10.904-12.594 17.863l-4.227 13.374 1.231.118a15.01 15.01 0 0 1 13.633 15.008c0 8.316-6.766 15.082-15.081 15.082v2c8.315 0 15.081 6.766 15.081 15.082s-6.766 15.082-15.081 15.082h-9.359l-4.165 20.048c-1.105 5.322-5.854 9.185-11.289 9.185h-15.906c-5.393 0-10.133-3.826-11.271-9.097l-4.346-20.135h-9.501c-8.316 0-15.082-6.766-15.082-15.082s6.766-15.082 15.082-15.082v-2c-8.316 0-15.082-6.766-15.082-15.082 0-7.815 5.861-14.268 13.633-15.008l1.231-.118-4.164-13.177c-2.268-7.178-6.484-13.299-12.192-17.7a80.283 80.283 0 0 1-4.484-3.736c-28.207 28.527-45.946 67.438-46.764 110.388-.412 21.614 3.433 42.277 10.73 61.225h88.801a4.16 4.16 0 0 1 4.155 4.156v52.945a4.16 4.16 0 0 1-4.155 4.156h-46.936a162.484 162.484 0 0 0 12.494 10.349c10.533 7.855 16.859 20.121 16.859 33.261v82.547c0 5.695 4.617 10.312 10.312 10.312h119.04c5.695 0 10.312-4.617 10.312-10.312v-58.316c0-5.695 4.617-10.312 10.312-10.312h31.425c24.739 0 44.794-20.055 44.794-44.794v-32.943c0-5.695 4.617-10.312 10.312-10.312h25.976c9.303 0 16.845-7.542 16.845-16.845 0-2.89-.743-5.731-2.159-8.251z" opacity="1" data-original="#fddeb0"></path><g fill="#fdd79b"><path d="M137.898 313.273c-7.05-18.675-10.757-38.99-10.352-60.225.62-32.557 10.967-62.792 28.22-87.945l-.223-.706c-2.145-6.79-6.211-12.861-11.85-17.209a82.656 82.656 0 0 1-4.58-3.813c-27.798 28.46-45.247 67.082-46.059 109.673-.404 21.235 3.303 41.55 10.352 60.225zM209.492 501.688v-82.547c0-13.14-6.325-25.405-16.858-33.261a162.02 162.02 0 0 1-11.403-9.349H146.74a162.813 162.813 0 0 0 11.403 9.349c10.533 7.855 16.859 20.121 16.859 33.261v82.547c0 5.695 4.617 10.312 10.312 10.312h34.491c-5.696 0-10.313-4.617-10.313-10.312z" fill="#fdd79b" opacity="1" data-original="#fdd79b"></path></g><g fill="#c8effe"><path d="M319.415 204.212a4.16 4.16 0 0 1-4.155-4.156v-35.632c-17.614-12.025-38.888-19.066-61.778-19.066-3.165 0-6.297.142-9.395.406-.113.089-.223.182-.336.271-6.04 4.727-10.395 10.904-12.594 17.863l-4.227 13.374 1.231.118a15.01 15.01 0 0 1 13.633 15.008c0 8.316-6.766 15.082-15.081 15.082v2c8.315 0 15.081 6.766 15.081 15.082s-6.766 15.082-15.081 15.082h-9.359l-4.165 20.048c-1.105 5.322-5.854 9.185-11.289 9.185h-15.906c-5.393 0-10.133-3.826-11.271-9.097l-4.346-20.135h-9.501c-6.562 0-12.142-4.219-14.212-10.081a109.715 109.715 0 0 0-3.03 25.643c0 21.727 6.342 42.001 17.27 59.068h31.679a4.16 4.16 0 0 1 4.155 4.156v30.799c16.571 10.038 35.993 15.822 56.742 15.822 60.569 0 109.846-49.277 109.846-109.846 0-18.395-4.552-35.745-12.578-50.993h-31.333zM160.877 209.48v-2c-2.036 0-3.977-.411-5.751-1.145a109.502 109.502 0 0 0-2.649 5.708 14.996 14.996 0 0 1 8.4-2.563z" fill="#c8effe" opacity="1" data-original="#c8effe" class=""></path></g><g fill="#99e6fc"><path d="M169 255.205c0-4.54.281-9.015.819-13.412l-.248-1.15h-8.694c-6.487 0-12.063-3.849-14.605-9.381a109.793 109.793 0 0 0-2.636 23.943c0 21.306 6.104 41.21 16.646 58.068h25.363C175.102 296.417 169 276.511 169 255.205zM197.741 329.196v20.625c16.351 9.67 35.408 15.23 55.741 15.23 4.289 0 8.52-.256 12.682-.736-26.979-3.116-51.008-16.049-68.423-35.119z" fill="#99e6fc" opacity="1" data-original="#99e6fc"></path></g><path fill="#01d0fb" d="M253.482 201.088a53.89 53.89 0 0 0-16.949 2.733 15.01 15.01 0 0 1-8.394 3.587c-.481.256-.953.524-1.425.793v1.279c8.315 0 15.081 6.766 15.081 15.082s-6.766 15.082-15.081 15.082h-9.359l-4.165 20.048c-1.105 5.322-5.854 9.185-11.289 9.185h-.783c6.072 23.243 27.246 40.447 52.365 40.447 29.84 0 54.117-24.277 54.117-54.117s-24.278-54.119-54.118-54.119z" opacity="1" data-original="#01d0fb" class=""></path><g fill="#01c0fa"><path d="M234.366 255.205a53.818 53.818 0 0 1 3.46-19.037c-2.888 2.766-6.798 4.475-11.113 4.475h-8.545l-4 19.251a12.53 12.53 0 0 1-12.268 9.981h-.499c6.413 22.732 27.324 39.447 52.08 39.447a53.844 53.844 0 0 0 17.501-2.921c-21.274-7.292-36.616-27.48-36.616-51.196zM238.622 203.179c-2.942 3.248-7.18 5.301-11.908 5.301 8.882 0 16.082 7.2 16.082 16.082 0 .637-.047 1.261-.119 1.878 6.544-10.376 16.51-18.388 28.307-22.432a53.871 53.871 0 0 0-32.362-.829z" fill="#01c0fa" opacity="1" data-original="#01c0fa"></path></g><path fill="#fed402" d="M192.568.009c-43.737.638-79.699 36.139-80.87 79.865-.734 27.408 11.97 51.875 31.994 67.314 5.639 4.348 9.704 10.419 11.85 17.209l4.102 12.982a15.21 15.21 0 0 1 1.232-.062h65.837c.416 0 .824.029 1.232.062l4.165-13.18c2.187-6.922 6.54-12.902 12.257-17.376 19.206-15.03 31.555-38.417 31.555-64.696 0-45.766-37.434-82.788-83.354-82.118z" opacity="1" data-original="#fed402"></path><path fill="#fac600" d="m155.542 164.397 4.102 12.982c.407-.033.816-.062 1.232-.062h27.376l-6.85-21.676c-2.146-6.79-6.211-12.861-11.85-17.209-20.024-15.44-32.728-39.907-31.994-67.314.81-30.241 18.266-56.539 43.422-70.1-38.333 6.091-68.217 39.062-69.283 78.856-.734 27.408 11.97 51.875 31.994 67.314 5.641 4.348 9.706 10.419 11.851 17.209z" opacity="1" data-original="#fac600"></path><circle cx="193.795" cy="82.127" r="47.616" fill="#fee97d" opacity="1" data-original="#fee97d"></circle><path fill="#e8b800" d="M193.795 27.011c-30.392 0-55.116 24.725-55.116 55.116 0 27.846 20.762 50.921 47.616 54.592v40.597h15v-40.597c26.854-3.672 47.616-26.746 47.616-54.592 0-30.391-24.724-55.116-55.116-55.116zm7.5 94.519v-21.139a19.634 19.634 0 0 1-15 0v21.139c-18.546-3.523-32.616-19.846-32.616-39.403 0-22.12 17.996-40.116 40.116-40.116s40.116 17.996 40.116 40.116c0 19.556-14.07 35.879-32.616 39.403z" opacity="1" data-original="#e8b800"></path><path fill="#a8d3d8" d="M160.877 208.48v1h65.837v-1c8.882 0 16.082-7.2 16.082-16.082s-7.2-16.082-16.082-16.082h-65.837c-8.882 0-16.082 7.2-16.082 16.082 0 8.882 7.2 16.082 16.082 16.082z" opacity="1" data-original="#a8d3d8"></path><path fill="#3e5959" d="m169.354 239.643 4.391 20.346a12.53 12.53 0 0 0 12.248 9.886H201.9a12.53 12.53 0 0 0 12.268-9.981l4.207-20.251z" opacity="1" data-original="#3e5959"></path><path fill="#384949" d="m196.068 259.989-4.391-20.346h-22.323l4.391 20.346a12.53 12.53 0 0 0 12.248 9.886H201.9a12.51 12.51 0 0 0 3.206-.417 12.53 12.53 0 0 1-9.038-9.469z" opacity="1" data-original="#384949"></path><path fill="#8ebac5" d="M182.932 192.398c0-8.882 7.2-16.082 16.082-16.082h-38.137c-8.882 0-16.082 7.2-16.082 16.082s7.2 16.082 16.082 16.082h38.137c-8.882 0-16.082-7.2-16.082-16.082z" opacity="1" data-original="#8ebac5"></path><path fill="#8ebac5" d="M226.713 240.643h-65.837c-8.882 0-16.082-7.2-16.082-16.082 0-8.882 7.2-16.082 16.082-16.082h65.837c8.882 0 16.082 7.2 16.082 16.082 0 8.882-7.2 16.082-16.082 16.082z" opacity="1" data-original="#8ebac5"></path><path fill="#7ca1b1" d="M182.932 224.562c0-8.882 7.2-16.082 16.082-16.082h-38.137c-8.882 0-16.082 7.2-16.082 16.082 0 8.882 7.2 16.082 16.082 16.082h38.137c-8.882-.001-16.082-7.201-16.082-16.082z" opacity="1" data-original="#7ca1b1"></path><path fill="#05e39c" d="M192.585 376.531H54.874a5.155 5.155 0 0 1-5.156-5.156V318.43a5.155 5.155 0 0 1 5.156-5.156h137.711a5.155 5.155 0 0 1 5.156 5.156v52.946a5.156 5.156 0 0 1-5.156 5.155z" opacity="1" data-original="#05e39c"></path><path fill="#0ed290" d="M84.283 371.375V318.43a5.155 5.155 0 0 1 5.156-5.156H54.874a5.155 5.155 0 0 0-5.156 5.156v52.946a5.155 5.155 0 0 0 5.156 5.156h34.565a5.157 5.157 0 0 1-5.156-5.157z" opacity="1" data-original="#0ed290"></path><path fill="#537983" d="M96.913 352.402H77.606c-4.143 0-7.5-3.358-7.5-7.5s3.357-7.5 7.5-7.5h19.307c4.143 0 7.5 3.358 7.5 7.5s-3.357 7.5-7.5 7.5zM169.853 352.402h-47.881c-4.143 0-7.5-3.358-7.5-7.5s3.357-7.5 7.5-7.5h47.881a7.5 7.5 0 0 1 0 15z" opacity="1" data-original="#537983"></path><path fill="#fd5426" d="M457.126 205.212H319.415a5.155 5.155 0 0 1-5.156-5.156V147.11a5.155 5.155 0 0 1 5.156-5.156h137.711a5.155 5.155 0 0 1 5.156 5.156v52.946a5.155 5.155 0 0 1-5.156 5.156z" opacity="1" data-original="#fd5426"></path><path fill="#ef4424" d="M349.039 200.056v-52.945a5.155 5.155 0 0 1 5.156-5.156h-34.78a5.155 5.155 0 0 0-5.156 5.156v52.945a5.155 5.155 0 0 0 5.156 5.156h34.78a5.156 5.156 0 0 1-5.156-5.156z" opacity="1" data-original="#ef4424"></path><path fill="#d73d24" d="M361.455 181.083h-19.308c-4.143 0-7.5-3.358-7.5-7.5s3.357-7.5 7.5-7.5h19.308c4.143 0 7.5 3.358 7.5 7.5s-3.357 7.5-7.5 7.5zM434.394 181.083h-47.881c-4.143 0-7.5-3.358-7.5-7.5s3.357-7.5 7.5-7.5h47.881a7.5 7.5 0 0 1 0 15z" opacity="1" data-original="#d73d24"></path><circle cx="193.795" cy="82.127" r="20.752" fill="#fe9901" opacity="1" data-original="#fe9901"></circle><path fill="#fb8801" d="M190 82.127c0-8.437 5.044-15.684 12.273-18.928a20.658 20.658 0 0 0-8.478-1.824c-11.461 0-20.752 9.291-20.752 20.752s9.291 20.752 20.752 20.752c3.023 0 5.887-.661 8.478-1.824C195.044 97.811 190 90.564 190 82.127z" opacity="1" data-original="#fb8801"></path></g></svg>