<svg xmlns="http://www.w3.org/2000/svg" version="1.1" xmlns:xlink="http://www.w3.org/1999/xlink" width="512" height="512" x="0" y="0" viewBox="0 0 497 497" style="enable-background:new 0 0 512 512" xml:space="preserve" class=""><g><path fill="#ffbc2b" d="M162.994 0v270c74.558 0 135-60.441 135-135s-60.442-135-135-135z" opacity="1" data-original="#ffbc2b"></path><path fill="#ffcf66" d="M267.994 135c0-74.559-47.01-135-105-135-74.558 0-135 60.441-135 135s60.442 135 135 135c57.99 0 105-60.441 105-135z" opacity="1" data-original="#ffcf66"></path><path fill="#bdf2ff" d="M0 308.5c0 49.706 40.294 90 90 90h317c49.706 0 90-40.294 90-90z" opacity="1" data-original="#bdf2ff"></path><path fill="#e5faff" d="M90 368.5h317c49.706 0 90-26.863 90-60 0-39.513-25.465-73.077-60.878-85.181C431.285 195.034 406.665 173.5 377 173.5c-2.478 0-4.916.168-7.315.46C347.682 129.262 301.687 98.5 248.5 98.5s-99.182 30.762-121.185 75.46a60.472 60.472 0 0 0-7.315-.46c-29.665 0-54.285 21.534-59.122 49.819C25.465 235.423 0 268.987 0 308.5c0 33.137 40.294 60 90 60z" opacity="1" data-original="#e5faff" class=""></path><path fill="#28a6fa" d="M407.447 299.023c.003 0-22.362-34.438-37.763-58.153l-.001 127.63c24.853 0 45-20.147 45-45 0-9.027-2.66-17.432-7.236-24.477z" opacity="1" data-original="#28a6fa"></path><path fill="#24c0ff" d="M384.683 323.5c0-9.027-.887-17.432-2.412-24.477l-12.587-58.152-37.768 58.152a44.807 44.807 0 0 0-7.233 24.477c0 24.853 20.147 45 45 45 8.284 0 15-20.147 15-45zM139.183 398.5c0 16.569 13.431 30 30 30s30-13.431 30-30a29.854 29.854 0 0 0-4.824-16.318c.002 0-14.908-22.959-25.175-38.769l-25.179 38.769a29.87 29.87 0 0 0-4.822 16.318z" opacity="1" data-original="#24c0ff"></path><path fill="#28a6fa" d="M333.035 404.364c.004 0-29.816-45.918-50.35-77.538L282.683 497c33.137 0 60-26.863 60-60 0-12.036-3.546-23.242-9.648-32.636z" opacity="1" data-original="#28a6fa"></path><path fill="#24c0ff" d="M312.683 437c0-12.036-1.773-23.242-4.824-32.636.002 0-14.908-45.917-25.175-77.537l-50.357 77.537c-6.097 9.394-9.644 20.6-9.644 32.636 0 33.137 26.863 60 60 60 16.569 0 30-26.863 30-60z" opacity="1" data-original="#24c0ff"></path></g></svg>