<svg xmlns="http://www.w3.org/2000/svg" version="1.1" xmlns:xlink="http://www.w3.org/1999/xlink" width="512" height="512" x="0" y="0" viewBox="0 0 512 512" style="enable-background:new 0 0 512 512" xml:space="preserve" class=""><g><path fill="#ffcd01" d="M401.818 128.076a24 24 0 0 0-33.874-33.911 32 32 0 0 0-48.379-25.623 23.994 23.994 0 0 0-40.777-21.259 32 32 0 0 0-62.435 3.97 31.991 31.991 0 0 0-53.021 6.528 24 24 0 0 0-41 24.554 24 24 0 0 0-32.723 30.305A32 32 0 0 0 96 176h304a24 24 0 0 0 1.818-47.924z" opacity="1" data-original="#ffcd01" class=""></path><path fill="#ffba01" d="M401.818 128.076a24 24 0 0 0-33.874-33.911 31.965 31.965 0 0 0-13.325-24.191 581.066 581.066 0 0 1-289.628 81.951A32.012 32.012 0 0 0 96 176h304a24 24 0 0 0 1.818-47.924z" opacity="1" data-original="#ffba01" class=""></path><path fill="#e6e6e6" d="M128 440h240l40-240H88z" opacity="1" data-original="#e6e6e6"></path><path fill="#d3d3d3" d="M343.064 200C311.813 294.671 222.642 363 117.5 363c-.782 0-1.558-.022-2.338-.03L128 440h240l40-240z" opacity="1" data-original="#d3d3d3"></path><path fill="#ff2b63" d="m216 200 8 240h48l8-240z" opacity="1" data-original="#ff2b63"></path><path fill="#e5235f" d="M220.65 339.489 224 440h48l4.606-138.18a237.938 237.938 0 0 1-55.956 37.669zM344 200l-24 240h48l40-240z" opacity="1" data-original="#e5235f"></path><path fill="#48bdff" d="M280 464v-64a24 24 0 0 1-24-24H48a24 24 0 0 1-24 24v64a24 24 0 0 1 24 24h208a24 24 0 0 1 24-24z" opacity="1" data-original="#48bdff"></path><path fill="#3ba4f2" d="M256 376h-40.706A159.164 159.164 0 0 1 24 456.294V464a24 24 0 0 1 24 24h208a24 24 0 0 1 24-24v-64a24 24 0 0 1-24-24z" opacity="1" data-original="#3ba4f2"></path><path fill="#ff2b63" d="m88 200 40 240h48l-24-240z" opacity="1" data-original="#ff2b63"></path><path fill="#e5235f" d="M117.5 363c-.782 0-1.558-.022-2.338-.03L128 440h48l-8.235-82.348A238.371 238.371 0 0 1 117.5 363z" opacity="1" data-original="#e5235f"></path><rect width="352" height="32" x="72" y="168" fill="#b3b3b3" rx="16" opacity="1" data-original="#b3b3b3" class=""></rect><circle cx="368" cy="136" r="8" fill="#ff891f" opacity="1" data-original="#ff891f"></circle><circle cx="320" cy="120" r="8" fill="#ff891f" opacity="1" data-original="#ff891f"></circle><circle cx="272" cy="88" r="8" fill="#ff9f03" opacity="1" data-original="#ff9f03"></circle><circle cx="264" cy="136" r="8" fill="#ff891f" opacity="1" data-original="#ff891f"></circle><circle cx="224" cy="96" r="8" fill="#ff9f03" opacity="1" data-original="#ff9f03"></circle><circle cx="192" cy="80" r="8" fill="#ff9f03" opacity="1" data-original="#ff9f03"></circle><circle cx="160" cy="104" r="8" fill="#ff9f03" opacity="1" data-original="#ff9f03"></circle><circle cx="192" cy="128" r="8" fill="#ff9f03" opacity="1" data-original="#ff9f03"></circle><circle cx="120" cy="136" r="8" fill="#ff9f03" opacity="1" data-original="#ff9f03"></circle><path fill="#e6e6e6" d="M88 376h128v112H88z" opacity="1" data-original="#e6e6e6"></path><circle cx="56" cy="432" r="8" fill="#fdc47d" opacity="1" data-original="#fdc47d"></circle><path fill="#703f16" d="M464 488H352l-24-216h160z" opacity="1" data-original="#703f16"></path><path fill="#ffcd01" d="M472 64a23.948 23.948 0 0 0-8.928-18.672 16 16 0 1 0-30.144 0 24 24 0 0 0 24.3 40.829A16 16 0 1 0 472 64z" opacity="1" data-original="#ffcd01" class=""></path><path fill="#3bdabe" d="M485.657 146.343a8 8 0 0 0-11.314 0l-32 32A8 8 0 0 0 440 184v88a8 8 0 0 0 16 0v-84.687l29.657-29.656a8 8 0 0 0 0-11.314z" opacity="1" data-original="#3bdabe"></path><path fill="#ffcd01" d="M456 408c5.668 0 11.307-.125 16.926-.331l2.316-20.846a452.791 452.791 0 0 1-139.491-45.065l5.749 51.732A456.78 456.78 0 0 0 456 408zM72 56c0-.708-.037-1.407-.1-2.1a15.993 15.993 0 1 0-21.8-21.8c-.692-.06-1.391-.1-2.1-.1a24 24 0 1 0 24 24zM72 312c-.455 0-.9.031-1.348.068a23.938 23.938 0 0 0-2.731-5.422A15.993 15.993 0 1 0 40 296c0 .455.031.9.068 1.348a24 24 0 1 0 21.3 42.586A15.993 15.993 0 1 0 72 312z" opacity="1" data-original="#ffcd01" class=""></path><path fill="#d3d3d3" d="M88 463.291V488h128V376h-.706A159.069 159.069 0 0 1 88 463.291z" opacity="1" data-original="#d3d3d3"></path><path fill="#fdc47d" d="M176 400h-48a8 8 0 0 0 0 16h16v40a8 8 0 0 0 16 0v-40h16a8 8 0 0 0 0-16z" opacity="1" data-original="#fdc47d"></path><path fill="#603813" d="M329.778 288h156.444L488 272H328z" opacity="1" data-original="#603813"></path><rect width="176" height="32" x="320" y="248" fill="#b3b3b3" rx="16" opacity="1" data-original="#b3b3b3" class=""></rect><g fill="#ffba01"><path d="M80 40a15.99 15.99 0 0 0-9.425-14.575A15.954 15.954 0 0 1 63.9 45.9c.06.692.1 1.391.1 2.1a24 24 0 0 1-36.494 20.494A24 24 0 0 0 72 56c0-.708-.037-1.407-.1-2.1A15.985 15.985 0 0 0 80 40zM456 32a15.942 15.942 0 0 1-.928 5.328A23.948 23.948 0 0 1 464 56a15.914 15.914 0 0 1 7.156 1.7 24.02 24.02 0 0 0-8.084-12.376 15.935 15.935 0 0 0-8.5-19.9A15.9 15.9 0 0 1 456 32zM478.575 65.425a15.985 15.985 0 0 1-21.149 21.155 15.993 15.993 0 1 0 21.149-21.155zM449.232 78.157a24.027 24.027 0 0 1-21.726-1.663 23.992 23.992 0 0 0 29.34 9.813 16.053 16.053 0 0 1-7.614-8.15zM64 288a15.92 15.92 0 0 1-4.079 10.646 23.938 23.938 0 0 1 2.731 5.422c.445-.037.893-.068 1.348-.068a15.935 15.935 0 0 1 5.259.9 15.933 15.933 0 0 0-6.684-23.478A15.9 15.9 0 0 1 64 288zM78.575 313.425a15.981 15.981 0 0 1-25.207 18.509 24.011 24.011 0 0 1-25.862.56 24.006 24.006 0 0 0 33.862 7.44 15.988 15.988 0 1 0 17.207-26.509z" fill="#ffba01" opacity="1" data-original="#ffba01" class=""></path></g><path fill="#fcae60" d="M152 464a8 8 0 0 0 8-8v-17.915a158.75 158.75 0 0 1-16 9.188V456a8 8 0 0 0 8 8z" opacity="1" data-original="#fcae60"></path><circle cx="248" cy="432" r="8" fill="#fdc47d" opacity="1" data-original="#fdc47d"></circle></g></svg>