<svg xmlns="http://www.w3.org/2000/svg" version="1.1" xmlns:xlink="http://www.w3.org/1999/xlink" width="512" height="512" x="0" y="0" viewBox="0 0 497 497" style="enable-background:new 0 0 512 512" xml:space="preserve" class=""><g><path fill="#ffce69" d="M115.966 162.383H49.699v-30.134a8 8 0 0 1 8-8h50.267a8 8 0 0 1 8 8z" opacity="1" data-original="#ffce69"></path><path fill="#bdd3dd" d="M115.36 136.933a7.5 7.5 0 0 1-2.477-14.581l283.169-99.108a7.5 7.5 0 1 1 4.955 14.158L117.838 136.51a7.489 7.489 0 0 1-2.478.423z" opacity="1" data-original="#bdd3dd" class=""></path><path fill="#ffbd61" d="M107.966 124.249h-23a8 8 0 0 1 8 8v28.134h23v-28.134a8 8 0 0 0-8-8z" opacity="1" data-original="#ffbd61"></path><path fill="#868eaf" d="M447.301 160.383h-66.267v-28.134a8 8 0 0 1 8-8h50.267a8 8 0 0 1 8 8zM347.901 160.383h-66.267v-28.134a8 8 0 0 1 8-8h50.267a8 8 0 0 1 8 8z" opacity="1" data-original="#868eaf"></path><path fill="#7d83ad" d="M439.301 124.249h-23a8 8 0 0 1 8 8v28.134h23v-28.134a8 8 0 0 0-8-8zM339.901 124.249h-23a8 8 0 0 1 8 8v28.134h23v-28.134a8 8 0 0 0-8-8z" opacity="1" data-original="#7d83ad"></path><path fill="#a0c8ff" d="M265.066 488.718h198.801c18.299 0 33.133-14.834 33.133-33.133v-265.07c0-18.299-14.834-33.133-33.133-33.133H265.066z" opacity="1" data-original="#a0c8ff" class=""></path><path fill="#bdd3dd" d="M281.634 157.383H33.133C14.834 157.383 0 172.217 0 190.515v265.07c0 18.299 14.834 33.133 33.133 33.133h248.501z" opacity="1" data-original="#bdd3dd" class=""></path><circle cx="140.816" cy="323.051" r="107.684" fill="#868eaf" opacity="1" data-original="#868eaf"></circle><circle cx="140.816" cy="323.051" r="41.417" fill="#7d83ad" opacity="1" data-original="#7d83ad"></circle><path fill="#f9f5f3" d="M455.868 240.216H322.767a8 8 0 0 1-8-8v-33.7a8 8 0 0 1 8-8h133.101a8 8 0 0 1 8 8v33.7a8 8 0 0 1-8 8z" opacity="1" data-original="#f9f5f3" class=""></path><circle cx="339.617" cy="298.2" r="24.85" fill="#868eaf" transform="rotate(-76.7 339.722 298.272)" opacity="1" data-original="#868eaf"></circle><circle cx="439.018" cy="298.2" r="24.85" fill="#868eaf" transform="rotate(-76.53 438.952 298.037)" opacity="1" data-original="#868eaf"></circle><path fill="#868eaf" d="M463.868 363.684H314.767c-4.142 0-7.5-3.357-7.5-7.5s3.358-7.5 7.5-7.5h149.101a7.5 7.5 0 0 1 0 15zM463.868 396.816H314.767c-4.142 0-7.5-3.357-7.5-7.5s3.358-7.5 7.5-7.5h149.101c4.142 0 7.5 3.357 7.5 7.5s-3.358 7.5-7.5 7.5zM463.868 429.95H314.767c-4.142 0-7.5-3.357-7.5-7.5s3.358-7.5 7.5-7.5h149.101c4.142 0 7.5 3.357 7.5 7.5s-3.358 7.5-7.5 7.5z" opacity="1" data-original="#868eaf"></path><circle cx="414.168" cy="24.849" r="16.567" fill="#ffce69" transform="rotate(-76.7 414.285 24.842)" opacity="1" data-original="#ffce69"></circle><path fill="#7d83ad" d="M140.816 215.367c-3.885 0-7.721.211-11.5.612 54.064 5.74 96.184 51.485 96.184 107.072s-42.12 101.332-96.184 107.072c3.779.401 7.615.612 11.5.612 59.472 0 107.684-48.212 107.684-107.684 0-59.473-48.212-107.684-107.684-107.684z" opacity="1" data-original="#7d83ad"></path><path fill="#f9eae0" d="M455.868 190.516h-23a8 8 0 0 1 8 8v33.7a8 8 0 0 1-8 8h23a8 8 0 0 0 8-8v-33.7a8 8 0 0 0-8-8z" opacity="1" data-original="#f9eae0" class=""></path><path fill="#7d83ad" d="M439.018 273.349c-4.151 0-8.06 1.023-11.5 2.823 7.933 4.15 13.35 12.454 13.35 22.028s-5.417 17.877-13.35 22.027a24.74 24.74 0 0 0 11.5 2.823c13.724 0 24.85-11.126 24.85-24.85 0-13.725-11.126-24.851-24.85-24.851zM339.617 273.349a24.724 24.724 0 0 0-11.5 2.823c7.933 4.15 13.35 12.454 13.35 22.028s-5.417 17.877-13.35 22.027a24.736 24.736 0 0 0 11.5 2.823c13.724 0 24.85-11.126 24.85-24.85 0-13.725-11.126-24.851-24.85-24.851z" opacity="1" data-original="#7d83ad"></path><path fill="#91b2fa" d="M463.867 157.383h-23c18.299 0 33.133 14.834 33.133 33.132v265.07c0 18.299-14.834 33.133-33.133 33.133h23c18.299 0 33.133-14.834 33.133-33.133v-265.07c0-18.298-14.834-33.132-33.133-33.132z" opacity="1" data-original="#91b2fa" class=""></path></g></svg>