<svg xmlns="http://www.w3.org/2000/svg" version="1.1" xmlns:xlink="http://www.w3.org/1999/xlink" width="512" height="512" x="0" y="0" viewBox="0 0 32 32" style="enable-background:new 0 0 512 512" xml:space="preserve" fill-rule="evenodd" class=""><g><path d="M7.564 24.367a1 1 0 0 0-.539 1.693c5.253 5.253 13.782 5.253 19.035 0s5.253-13.782 0-19.035a1 1 0 0 0-1.693.539c-.569 3.351-2.538 7.564-5.888 10.915-3.351 3.35-7.564 5.319-10.915 5.888zm2.347-2.577a22.276 22.276 0 0 0 7.213-4.802 22.285 22.285 0 0 0 4.632-6.811c-3.279-1.532-7.306-.945-10.011 1.761C9.083 14.6 8.472 18.54 9.911 21.79zm-6.906-3.532h3.39a1 1 0 0 0 0-2h-3.39a1 1 0 0 0 0 2zM6.459 7.921l2.397 2.396a.999.999 0 1 0 1.414-1.414L7.873 6.506a1 1 0 0 0-1.414 1.415zm9.752-4.868v3.389a1 1 0 0 0 2 0V3.053a1 1 0 0 0-2 0z" fill="#000000" opacity="1" data-original="#000000" class=""></path></g></svg>