<svg xmlns="http://www.w3.org/2000/svg" viewBox="719.145 242.501 423.709 511.998" width="564.945" height="682.664"><path d="M797.129 282.22c-1.148 0-23.066 85.716-24.125 85.54-21.363 39.899-28.69 110.346-18.539 166.049a191.401 191.401 0 0 0 25.246 66.825c6.446-15.008 26.22 62.06 43.168 47.141h216.281c16.945 14.919 36.722-62.149 43.165-47.141a191.347 191.347 0 0 0 25.246-66.825c10.152-55.703 2.828-126.15-18.535-166.049-1.059.176-47.255-83.332-48.404-83.332l-243.503-2.208Z" fill="#802D40"/><path d="m931.018 551.376 65.106 161.194-65.106 11.582c-52.173-.09-109.287-69.228-142.478-123.518a141.662 141.662 0 0 1 34.34-49.965 83.89 83.89 0 0 1 28.688-16.861c51.203-17.038 77.599 15.361 79.451 17.568h-.001Z" fill="#FB7B76"/><path d="M1073.496 600.634c-30.07 50.306-83.802 81.716-142.388 83.247h-.09V551.376c1.856-2.207 28.25-34.606 79.451-17.567a83.909 83.909 0 0 1 28.69 16.861 141.589 141.589 0 0 1 34.337 49.964Z" fill="#FF5364"/><path d="M1039.16 550.669a83.892 83.892 0 0 0-28.692-16.861c-51.2-17.038-77.594 15.361-79.45 17.568-1.851-2.207-28.247-34.606-79.45-17.567a83.88 83.88 0 0 0-28.689 16.861 99.136 99.136 0 0 1 28.689-87.482c44.14-44.138 79.451-8.83 61.798 8.828-17.657 17.656-8.829 44.05 17.566 44.136h.176c26.395-.086 35.223-26.48 17.566-44.136-17.657-17.657 17.657-52.966 61.794-8.828a99.15 99.15 0 0 1 28.692 87.481Z" fill="#2C2F38"/><path d="M1041.808 340.307a17.01 17.01 0 0 0-4.855 11.562v3.707c-1.504-6.531-7.946-13.86-23.305-13.86a36.763 36.763 0 0 0-21.013 6.18 18.743 18.743 0 0 0-8.652 14.918v-4.234c0-7.86-5.914-18.98-23.566-18.98a32.823 32.823 0 0 0-20.746 6.972 21.55 21.55 0 0 0-8.653 16.774 21.564 21.564 0 0 0-8.648-16.774 32.837 32.837 0 0 0-20.747-6.972c-17.657 0-23.57 11.12-23.57 18.98v4.234a18.721 18.721 0 0 0-8.653-14.917 36.747 36.747 0 0 0-21.008-6.18c-15.36 0-21.804 7.328-23.304 13.86v-7.946a14.437 14.437 0 0 0-3.001-8.563l1.058-.793h.176a164.378 164.378 0 0 1 25.247-15.093c.09 0 .09-.09.176-.09a189.4 189.4 0 0 1 164.549 0c.09 0 .09.09.175.09a164.2 164.2 0 0 1 25.25 15.093h.176c.969.707 1.942 1.415 2.914 2.032Z" fill="#FB7B76"/><path d="M931.018 354.518v28.512c-.672 5.844-5.887 10.078-11.738 9.536h-29.485c-5.856.542-11.07-3.692-11.743-9.536v-33.278c0-7.86 5.914-18.98 23.57-18.98a32.834 32.834 0 0 1 20.748 6.972 21.568 21.568 0 0 1 8.648 16.774Zm-52.966-.532v24.279c0 5.297-6.004 9.535-13.328 9.535h-26.66c-7.414 0-13.329-4.238-13.329-9.535v-8.739a6.06 6.06 0 0 0 .353-2.121v-20.657c1.5-6.531 7.945-13.86 23.304-13.86a36.78 36.78 0 0 1 21.008 6.18 18.72 18.72 0 0 1 8.652 14.918Zm105.931-4.234v33.278c-.668 5.844-5.883 10.078-11.738 9.536H942.76c-5.855.542-11.07-3.692-11.742-9.536v-28.512a21.557 21.557 0 0 1 8.653-16.774 32.823 32.823 0 0 1 20.746-6.972c17.652 0 23.566 11.12 23.566 18.98Zm53.321 19.774v8.739c0 5.297-5.914 9.535-13.328 9.535h-26.66c-7.329 0-13.333-4.238-13.333-9.535v-24.279a18.743 18.743 0 0 1 8.652-14.918 36.798 36.798 0 0 1 21.013-6.18c15.36 0 21.8 7.329 23.305 13.86v20.656a5.858 5.858 0 0 0 .351 2.122Z" fill="#FAC176"/><path d="M1069.172 276.747c-64.532-64.266-138.154-18.363-138.154-18.363s-73.621-45.903-138.154 18.363c-83.333 83.243-92.071 238.878-45.988 358.318 46.078 119.434 184.142 119.434 184.142 119.434s138.154 0 184.147-119.434c45.992-119.44 37.34-275.074-45.993-358.318Zm29.575 257.062a191.41 191.41 0 0 1-25.251 66.825c-30.07 50.306-83.802 81.716-142.388 83.247h-.176c-58.591-1.531-112.322-32.941-142.392-83.247a191.401 191.401 0 0 1-25.246-66.825c-10.153-55.703-2.825-108.493 18.539-148.391a146.965 146.965 0 0 1 24.363-33.635l.441-.441.176-.18a146.076 146.076 0 0 1 15.274-12.094l1.058-.793h.176a164.378 164.378 0 0 1 25.247-15.093c.09 0 .09-.09.176-.09a189.4 189.4 0 0 1 164.549 0c.09 0 .09.09.175.09a164.2 164.2 0 0 1 25.25 15.093h.176c.969.707 1.942 1.415 2.914 2.032a164.223 164.223 0 0 1 13.418 10.855l.176.18.441.441a147.118 147.118 0 0 1 24.364 33.634c21.364 39.899 28.688 92.689 18.54 148.391v.001Z" fill="#DF4D60"/><path d="M931.018 363.346v28.512c-.672 5.844-5.887 10.079-11.738 9.536h-29.485c-5.856.543-11.07-3.692-11.743-9.536V358.58c0-7.86 5.914-18.98 23.57-18.98a32.84 32.84 0 0 1 20.748 6.972 21.564 21.564 0 0 1 8.648 16.774Zm-52.966-.531v24.278c0 5.297-6.004 9.535-13.328 9.535h-26.66c-7.414 0-13.329-4.238-13.329-9.535v-8.738c.243-.68.363-1.399.353-2.122v-20.657c1.5-6.531 7.945-13.86 23.304-13.86a36.747 36.747 0 0 1 21.008 6.18 18.72 18.72 0 0 1 8.652 14.918v.001Zm105.931-4.235v33.278c-.668 5.844-5.883 10.079-11.738 9.536H942.76c-5.855.543-11.07-3.692-11.742-9.536v-28.512a21.55 21.55 0 0 1 8.653-16.774 32.823 32.823 0 0 1 20.746-6.972c17.652 0 23.566 11.12 23.566 18.98Zm53.321 19.775v8.738c0 5.297-5.914 9.535-13.328 9.535h-26.66c-7.329 0-13.333-4.238-13.333-9.535v-24.279a18.743 18.743 0 0 1 8.652-14.917 36.763 36.763 0 0 1 21.013-6.18c15.36 0 21.8 7.328 23.305 13.86v20.656a5.858 5.858 0 0 0 .351 2.122Z" fill="#F5EFCA"/><path d="M1080.207 385.417a19.41 19.41 0 0 1-3.266.262h-26.66a13.16 13.16 0 0 1-12.977-7.324V358.58a12.168 12.168 0 0 0-.351-3.004v-3.707a17.01 17.01 0 0 1 4.855-11.562 164.223 164.223 0 0 1 13.418 10.855l.176.18.441.441a147.118 147.118 0 0 1 24.364 33.634Zm-255.119-37.786v7.945a12.023 12.023 0 0 0-.353 3.004v19.775a13.16 13.16 0 0 1-12.977 7.324h-26.659a19.512 19.512 0 0 1-3.265-.262 146.959 146.959 0 0 1 24.363-33.634l.441-.441.176-.18a146.076 146.076 0 0 1 15.274-12.094 14.437 14.437 0 0 1 3.001 8.563h-.001Z" fill="#F9EAB0"/><path d="M939.846 657.396a8.83 8.83 0 0 1-8.828-8.827c0-8.333-17.504-8.829-17.652-8.829a8.826 8.826 0 0 1-8.829-8.828 8.824 8.824 0 0 1 8.829-8.825c12.207 0 35.308 5.532 35.308 26.481a8.829 8.829 0 0 1-8.828 8.829v-.001Z" fill="#FF5364"/><path d="M922.191 613.259a8.826 8.826 0 0 1-8.825-8.828c0-20.95 23.101-26.485 35.308-26.485a8.829 8.829 0 0 1 8.735 8.829 8.829 8.829 0 0 1-8.735 8.828c-.335 0-17.656.53-17.656 8.828a8.829 8.829 0 0 1-8.828 8.828h.001Z" fill="#FB7B76"/></svg>